# xmcd
#
# Track frame offsets: 
#        150
#        18229
#        36548
#        60002
#        74673
#        80443
#        92913
#        115421
#        132318
#        140442
#        147780
#        166153
#        188150
#
# Disc length: 2623 seconds
#
# Revision: 0
# Processed by: cddbd v1.5.2PL0 Copyright (c) Steve Scherf et al.
# Submitted via: ExactAudioCopy v0.99pb4
#
DISCID=b40a3d0d
DTITLE=White Iron Band - Devil's Sweet Revenge
DYEAR=2008
DGENRE=Country
TTITLE0=Lay Me My Money Down
TTITLE1=Devil's Sweet Revenge
TTITLE2=Angels
TTITLE3=Satisfied
TTITLE4=Segue 1
TTITLE5=Whiskey Drunk and Bullet Proof
TTITLE6=Goodbye Momma
TTITLE7=Losin' Game
TTITLE8=Dead and Gone
TTITLE9=Segue 2
TTITLE10=Crazy
TTITLE11=Devil's Gonna Win
TTITLE12=Segue 3
EXTD=
EXTT0=
EXTT1=
EXTT2=
EXTT3=
EXTT4=
EXTT5=
EXTT6=
EXTT7=
EXTT8=
EXTT9=
EXTT10=
EXTT11=
EXTT12=
PLAYORDER=
